HIERARCHY
ROOT Hips
{
    OFFSET 0.000000 0.000000 0.000000
    CHANNELS 6 Xposition Yposition Zposition Zrotation Xrotation Yrotation
    JOINT Spine
    {
        OFFSET -0.000000 7.305680 0.000000
        CHANNELS 3 Zrotation Xrotation Yrotation
        JOINT Spine1
        {
            OFFSET -0.000000 20.356600 0.000000
            CHANNELS 3 Zrotation Xrotation Yrotation
            JOINT Neck
            {
                OFFSET -0.000000 22.138500 0.000000
                CHANNELS 3 Zrotation Xrotation Yrotation
                JOINT Head
                {
                    OFFSET -0.000000 13.809501 1.781870
                    CHANNELS 3 Zrotation Xrotation Yrotation
                    End Site
                    {
                        OFFSET -0.000000 17.818779 0.000000
                    }
                }
            }
            JOINT LeftShoulder
            {
                OFFSET 3.599130 17.990000 0.023591
                CHANNELS 3 Zrotation Xrotation Yrotation
                JOINT LeftArm
                {
                    OFFSET 12.560999 0.000000 0.000000
                    CHANNELS 3 Zrotation Xrotation Yrotation
                    JOINT LeftForeArm
                    {
                        OFFSET 22.903299 0.000000 0.000000
                        CHANNELS 3 Zrotation Xrotation Yrotation
                        JOINT LeftHand
                        {
                            OFFSET 21.865299 0.000000 0.000000
                            CHANNELS 3 Zrotation Xrotation Yrotation
                            JOINT LeftHandThumb1
                            {
                                OFFSET 1.853710 -2.106480 2.949080
                                CHANNELS 3 Zrotation Xrotation Yrotation
                                JOINT LeftHandThumb2
                                {
                                    OFFSET 2.049150 0.000000 1.336400
                                    CHANNELS 3 Zrotation Xrotation Yrotation
                                    JOINT LeftHandThumb3
                                    {
                                        OFFSET 2.672810 0.000000 0.000000
                                        CHANNELS 3 Zrotation Xrotation Yrotation
                                        End Site
                                        {
                                            OFFSET 2.381310 0.000000 0.000000
                                        }
                                    }
                                }
                            }
                            JOINT LeftHandIndex1
                            {
                                OFFSET 7.583340 0.000000 2.949080
                                CHANNELS 3 Zrotation Xrotation Yrotation
                                JOINT LeftHandIndex2
                                {
                                    OFFSET 4.454680 0.000000 0.000000
                                    CHANNELS 3 Zrotation Xrotation Yrotation
                                    JOINT LeftHandIndex3
                                    {
                                        OFFSET 2.227340 0.000000 0.000000
                                        CHANNELS 3 Zrotation Xrotation Yrotation
                                        End Site
                                        {
                                            OFFSET 1.984424 0.000000 0.000000
                                        }
                                    }
                                }
                            }
                            JOINT LeftHandMiddle1
                            {
                                OFFSET 7.583340 0.000000 0.977409
                                CHANNELS 3 Zrotation Xrotation Yrotation
                                JOINT LeftHandMiddle2
                                {
                                    OFFSET 4.900150 0.000000 0.000000
                                    CHANNELS 3 Zrotation Xrotation Yrotation
                                    JOINT LeftHandMiddle3
                                    {
                                        OFFSET 2.672810 0.000000 0.000000
                                        CHANNELS 3 Zrotation Xrotation Yrotation
                                        End Site
                                        {
                                            OFFSET 2.381310 0.000000 0.000000
                                        }
                                    }
                                }
                            }
                            JOINT LeftHandRing1
                            {
                                OFFSET 7.162050 0.000000 -0.977409
                                CHANNELS 3 Zrotation Xrotation Yrotation
                                JOINT LeftHandRing2
                                {
                                    OFFSET 4.454680 0.000000 0.000000
                                    CHANNELS 3 Zrotation Xrotation Yrotation
                                    JOINT LeftHandRing3
                                    {
                                        OFFSET 2.227340 0.000000 0.000000
                                        CHANNELS 3 Zrotation Xrotation Yrotation
                                        End Site
                                        {
                                            OFFSET 1.984424 0.000000 0.000000
                                        }
                                    }
                                }
                            }
                            JOINT LeftHandPinky1
                            {
                                OFFSET 6.740750 0.000000 -2.949080
                                CHANNELS 3 Zrotation Xrotation Yrotation
                                JOINT LeftHandPinky2
                                {
                                    OFFSET 3.563750 0.000000 0.000000
                                    CHANNELS 3 Zrotation Xrotation Yrotation
                                    JOINT LeftHandPinky3
                                    {
                                        OFFSET 1.781870 0.000000 0.000000
                                        CHANNELS 3 Zrotation Xrotation Yrotation
                                        End Site
                                        {
                                            OFFSET 1.587538 0.000000 0.000000
                                        }
                                    }
                                }
                            }
                        }
                    }
                }
            }
            JOINT RightShoulder
            {
                OFFSET -3.506990 17.990000 0.023591
                CHANNELS 3 Zrotation Xrotation Yrotation
                JOINT RightArm
                {
                    OFFSET -12.560999 0.000000 0.000000
                    CHANNELS 3 Zrotation Xrotation Yrotation
                    JOINT RightForeArm
                    {
                        OFFSET -22.903299 0.000000 0.000000
                        CHANNELS 3 Zrotation Xrotation Yrotation
                        JOINT RightHand
                        {
                            OFFSET -21.865299 0.000000 0.000000
                            CHANNELS 3 Zrotation Xrotation Yrotation
                            JOINT RightHandThumb1
                            {
                                OFFSET -1.853710 -2.106480 2.949080
                                CHANNELS 3 Zrotation Xrotation Yrotation
                                JOINT RightHandThumb2
                                {
                                    OFFSET -2.049150 0.000000 1.336400
                                    CHANNELS 3 Zrotation Xrotation Yrotation
                                    JOINT RightHandThumb3
                                    {
                                        OFFSET -2.672810 0.000000 0.000000
                                        CHANNELS 3 Zrotation Xrotation Yrotation
                                        End Site
                                        {
                                            OFFSET -2.381310 0.000000 0.000000
                                        }
                                    }
                                }
                            }
                            JOINT RightHandIndex1
                            {
                                OFFSET -7.583340 0.000000 2.949080
                                CHANNELS 3 Zrotation Xrotation Yrotation
                                JOINT RightHandIndex2
                                {
                                    OFFSET -4.454680 0.000000 0.000000
                                    CHANNELS 3 Zrotation Xrotation Yrotation
                                    JOINT RightHandIndex3
                                    {
                                        OFFSET -2.227340 0.000000 0.000000
                                        CHANNELS 3 Zrotation Xrotation Yrotation
                                        End Site
                                        {
                                            OFFSET -1.984424 0.000000 0.000000
                                        }
                                    }
                                }
                            }
                            JOINT RightHandMiddle1
                            {
                                OFFSET -7.583340 0.000000 0.977409
                                CHANNELS 3 Zrotation Xrotation Yrotation
                                JOINT RightHandMiddle2
                                {
                                    OFFSET -4.900150 0.000000 0.000000
                                    CHANNELS 3 Zrotation Xrotation Yrotation
                                    JOINT RightHandMiddle3
                                    {
                                        OFFSET -2.672810 0.000000 0.000000
                                        CHANNELS 3 Zrotation Xrotation Yrotation
                                        End Site
                                        {
                                            OFFSET -2.381310 0.000000 0.000000
                                        }
                                    }
                                }
                            }
                            JOINT RightHandRing1
                            {
                                OFFSET -7.162050 0.000000 -0.977409
                                CHANNELS 3 Zrotation Xrotation Yrotation
                                JOINT RightHandRing2
                                {
                                    OFFSET -4.454680 0.000000 0.000000
                                    CHANNELS 3 Zrotation Xrotation Yrotation
                                    JOINT RightHandRing3
                                    {
                                        OFFSET -2.227340 0.000000 0.000000
                                        CHANNELS 3 Zrotation Xrotation Yrotation
                                        End Site
                                        {
                                            OFFSET -1.984424 0.000000 0.000000
                                        }
                                    }
                                }
                            }
                            JOINT RightHandPinky1
                            {
                                OFFSET -6.740750 0.000000 -2.949080
                                CHANNELS 3 Zrotation Xrotation Yrotation
                                JOINT RightHandPinky2
                                {
                                    OFFSET -3.563750 0.000000 0.000000
                                    CHANNELS 3 Zrotation Xrotation Yrotation
                                    JOINT RightHandPinky3
                                    {
                                        OFFSET -1.781870 0.000000 0.000000
                                        CHANNELS 3 Zrotation Xrotation Yrotation
                                        End Site
                                        {
                                            OFFSET -1.587538 0.000000 0.000000
                                        }
                                    }
                                }
                            }
                        }
                    }
                }
            }
        }
    }
    JOINT LeftUpLeg
    {
        OFFSET 8.909360 0.000000 0.000000
        CHANNELS 3 Zrotation Xrotation Yrotation
        JOINT LeftLeg
        {
            OFFSET -0.000000 -38.765602 0.000000
            CHANNELS 3 Zrotation Xrotation Yrotation
            JOINT LeftFoot
            {
                OFFSET -0.000000 -35.245003 0.000000
                CHANNELS 3 Zrotation Xrotation Yrotation
                JOINT LeftToeBase
                {
                    OFFSET -0.000000 -5.791090 13.364000
                    CHANNELS 3 Zrotation Xrotation Yrotation
                    End Site
                    {
                        OFFSET -0.000000 0.000000 3.563756
                    }
                }
            }
        }
    }
    JOINT RightUpLeg
    {
        OFFSET -8.909360 0.000000 0.000000
        CHANNELS 3 Zrotation Xrotation Yrotation
        JOINT RightLeg
        {
            OFFSET -0.000000 -38.765602 0.000000
            CHANNELS 3 Zrotation Xrotation Yrotation
            JOINT RightFoot
            {
                OFFSET -0.000000 -35.245003 0.000000
                CHANNELS 3 Zrotation Xrotation Yrotation
                JOINT RightToeBase
                {
                    OFFSET -0.000000 -5.791090 13.364000
                    CHANNELS 3 Zrotation Xrotation Yrotation
                    End Site
                    {
                        OFFSET -0.000000 0.000000 3.563756
                    }
                }
            }
        }
    }
}
MOTION
Frames:    4
Frame Time:    0.033333
8.791532    77.169617    126.491676    -10.201328    4.292520    -51.994965    -3.434701    4.376007    -5.559002    21.271805    26.844452    -7.054226    9.357065    24.249063    25.519808    5.903301    7.281019    28.536936    10.406893    -18.127520    -35.887604    -13.408062    13.194450    -54.703938    17.605671    37.257786    -16.123569    -2.343263    -5.609955    -2.280036    -9.616134    13.065168    6.230869    -0.000000    0.000000    10.467761    -0.000000    0.000000    20.935526    -36.506695    26.528112    -31.108784    -88.029503    0.000000    0.000000    -44.014755    0.000000    0.000000    -58.492664    8.104584    -13.637767    -95.279770    0.000000    0.000000    -55.889881    0.000000    0.000000    -74.596581    -14.688978    -3.820875    -102.530022    0.000000    0.000000    -67.765015    0.000000    0.000000    -89.999992    -39.999996    0.000000    -110.000000    0.000000    0.000000    -80.000000    0.000000    0.000000    -10.133425    1.733459    17.498573    94.292068    60.524765    -24.598646    -18.241611    7.782492    10.819331    8.716280    -27.132664    9.952033    6.351930    4.973183    -4.542115    0.000000    0.000000    -7.121093    0.000000    0.000000    -14.242187    20.303209    0.000000    -0.000000    40.606419    0.000000    -0.000000    20.303209    0.000000    -0.000000    41.145294    -2.112236    -1.105779    63.506294    0.000000    -0.000000    40.003151    0.000000    -0.000000    61.991547    -4.479595    -1.387949    86.406189    0.000000    -0.000000    59.703091    0.000000    -0.000000    83.547073    -6.857786    -0.773741    110.000000    0.000000    -0.000000    80.000000    0.000000    -0.000000    4.742866    -15.964925    -3.948754    4.833628    47.696007    0.657159    -2.120862    -24.228552    -1.155380    0.271374    -2.293043    -0.993078    -0.648551    -19.810898    1.375983    21.957912    49.755196    -35.972919    7.972392    -8.529615    4.282898    -0.567439    -2.004389    0.699769    
7.729771    75.268669    126.286606    -9.759047    4.460467    -51.684875    -5.320817    4.172194    -5.840811    23.260639    22.669243    -6.769551    9.842780    24.487474    24.960640    6.208642    7.854623    28.062840    11.308310    -19.931746    -33.967342    -13.863660    11.341182    -55.818428    20.336290    37.269371    -18.927269    -3.857089    -6.046862    -3.942341    -9.570147    13.107835    6.370758    -0.000000    0.000000    10.714491    -0.000000    0.000000    21.428984    -36.268993    26.399435    -31.214712    -87.532158    0.000000    0.000000    -43.766083    0.000000    0.000000    -58.329998    8.047302    -13.697906    -94.946541    0.000000    0.000000    -55.723289    0.000000    0.000000    -74.513741    -14.709360    -3.838962    -102.360939    0.000000    0.000000    -67.680473    0.000000    0.000000    -89.999992    -39.999996    0.000000    -110.000000    0.000000    0.000000    -80.000000    0.000000    0.000000    -11.265330    4.991047    14.813049    95.772713    59.056862    -28.616888    -22.814035    14.229469    15.240725    8.090819    -27.472258    11.544111    6.502994    4.938880    -4.385342    0.000000    0.000000    -6.958325    0.000000    0.000000    -13.916653    20.552385    0.000000    -0.000000    41.104771    0.000000    -0.000000    20.552385    0.000000    -0.000000    41.362358    -2.001041    -1.039681    63.840202    0.000000    -0.000000    40.170097    0.000000    -0.000000    62.176281    -4.240834    -1.300842    86.575630    0.000000    -0.000000    59.787811    0.000000    -0.000000    83.690445    -6.489109    -0.715929    110.000000    0.000000    -0.000000    80.000000    0.000000    -0.000000    4.580684    -18.715275    -5.610224    4.918993    53.901100    0.342329    -3.039388    -27.770319    -0.619770    0.264562    -2.370510    -0.986828    -0.016898    -18.818691    1.087709    23.126034    51.511845    -35.686470    7.759763    -16.396097    4.253668    -0.636593    -2.596817    0.751909    
6.914630    73.216667    125.957191    -8.699576    4.872550    -51.438560    -7.005452    3.964804    -6.356870    24.986053    18.349159    -6.336023    9.210841    24.346436    25.046696    6.783354    7.807776    27.817343    12.735132    -21.659639    -31.252979    -13.641154    10.087485    -56.676380    24.179819    35.965031    -22.205765    -5.011890    -6.664715    -4.658244    -9.642219    13.117704    6.287829    -0.000000    0.000000    10.667650    -0.000000    0.000000    21.335299    -36.417542    26.479931    -31.148565    -87.843109    0.000000    0.000000    -43.921558    0.000000    0.000000    -58.431683    8.083143    -13.660327    -95.154884    0.000000    0.000000    -55.827438    0.000000    0.000000    -74.565529    -14.696605    -3.827657    -102.466660    0.000000    0.000000    -67.733322    0.000000    0.000000    -89.999992    -39.999996    0.000000    -110.000000    0.000000    0.000000    -80.000000    0.000000    0.000000    -12.389871    8.586935    11.907598    94.135208    57.130569    -30.083324    -29.146193    21.298351    21.118662    6.779083    -29.679077    12.741334    6.697971    4.911935    -4.214459    0.000000    0.000000    -6.789248    0.000000    0.000000    -13.578497    20.858835    0.000000    -0.000000    41.717674    0.000000    -0.000000    20.858835    0.000000    -0.000000    41.620472    -1.917163    -0.987451    64.250839    0.000000    -0.000000    40.375423    0.000000    -0.000000    62.385906    -4.059799    -1.231359    86.784019    0.000000    -0.000000    59.892006    0.000000    -0.000000    83.844269    -6.208875    -0.668307    110.000000    0.000000    -0.000000    80.000000    0.000000    -0.000000    4.013280    -22.149323    -7.424005    4.983108    59.923294    -0.016424    -3.862386    -31.226063    0.071734    0.248807    -2.475471    -0.961401    0.175500    -19.510012    0.841978    24.713314    53.489761    -33.755432    6.466083    -24.506912    1.606819    -0.631914    -2.304938    0.773350    
6.346748    71.172447    125.494957    -7.365399    5.562043    -51.343441    -8.190842    3.930317    -6.947676    26.310875    14.062080    -5.749695    7.855729    23.911421    25.671562    7.825256    7.355087    27.804066    14.921609    -23.338406    -27.878872    -13.712998    8.809559    -56.958588    28.306379    33.174419    -25.433741    -6.318525    -7.296580    -4.933846    -9.766068    13.114861    6.109615    -0.000000    0.000000    10.453137    -0.000000    0.000000    20.906273    -36.713345    26.639429    -31.016300    -88.460999    0.000000    0.000000    -44.230499    0.000000    0.000000    -58.633873    8.154068    -13.585424    -95.568863    0.000000    0.000000    -56.034431    0.000000    0.000000    -74.668419    -14.671380    -3.805145    -102.676735    0.000000    0.000000    -67.838371    0.000000    0.000000    -89.999992    -39.999996    0.000000    -110.000000    0.000000    0.000000    -80.000000    0.000000    0.000000    -13.347109    12.077058    8.767268    90.297264    54.815865    -29.480049    -36.663372    27.051659    27.933807    5.386371    -32.360199    13.423772    6.811216    4.857858    -4.042138    0.000000    0.000000    -6.611543    0.000000    0.000000    -13.223085    21.030666    0.000000    -0.000000    42.061340    0.000000    -0.000000    21.030666    0.000000    -0.000000    41.744907    -1.811144    -0.930025    64.481087    0.000000    -0.000000    40.490551    0.000000    -0.000000    62.462543    -3.834110    -1.159463    86.900856    0.000000    -0.000000    59.950424    0.000000    -0.000000    83.864594    -5.863336    -0.629149    110.000000    0.000000    -0.000000    80.000000    0.000000    -0.000000    3.374780    -25.827232    -8.882537    5.692531    65.358994    -0.818803    -4.805439    -34.451485    0.496983    0.237341    -2.521039    -0.938311    0.081306    -21.755354    0.411300    27.866163    56.358540    -34.208538    4.518801    -31.177990    -0.871036    -0.557913    -1.436874    0.740247    
